<mxfile host="app.diagrams.net" modified="2021-12-14T18:27:20.415Z" agent="5.0 (Macintosh; Intel Mac OS X 10_15_7) AppleWebKit/537.36 (KHTML, like Gecko) Chrome/96.0.4664.93 Safari/537.36" etag="wql0TyHKjBjvwe7dPLPQ" version="15.9.4" type="github">
  <diagram name="Page-1" id="c7488fd3-1785-93aa-aadb-54a6760d102a">
    <mxGraphModel dx="1398" dy="1048" grid="1" gridSize="10" guides="1" tooltips="1" connect="1" arrows="1" fold="1" page="0" pageScale="1" pageWidth="1100" pageHeight="850" math="0" shadow="0">
      <root>
        <mxCell id="0" />
        <mxCell id="1" parent="0" />
        <mxCell id="myXn_InN5kpEXAYK22Rd-2" value="Tips" style="swimlane;swimlaneFillColor=#E6E6E6;rounded=0;" vertex="1" collapsed="1" parent="1">
          <mxGeometry x="160" y="-220" width="60" height="23" as="geometry">
            <mxRectangle x="160" y="-220" width="460" height="330" as="alternateBounds" />
          </mxGeometry>
        </mxCell>
        <mxCell id="myXn_InN5kpEXAYK22Rd-3" value="&lt;ol&gt;&lt;li&gt;hold shift &amp;amp; alt and use arrows to add the next shape.&lt;/li&gt;&lt;li&gt;release alt (still holding shift)&amp;nbsp; &amp;amp; click to swap shape.&lt;/li&gt;&lt;/ol&gt;" style="text;html=1;align=left;verticalAlign=middle;resizable=0;points=[];autosize=1;strokeColor=none;fillColor=none;rounded=0;" vertex="1" parent="myXn_InN5kpEXAYK22Rd-2">
          <mxGeometry y="30" width="340" height="60" as="geometry" />
        </mxCell>
        <mxCell id="myXn_InN5kpEXAYK22Rd-4" value="&lt;ol&gt;&lt;li&gt;ctrl &amp;amp; drag to resize shape X OR Y-axis from the middle out.&lt;/li&gt;&lt;li&gt;ctrl &amp;amp; shift &amp;amp; drag to resize shape X AND Y-axis from the middle out.&lt;/li&gt;&lt;/ol&gt;" style="text;html=1;align=left;verticalAlign=middle;resizable=0;points=[];autosize=1;strokeColor=none;fillColor=none;rounded=0;" vertex="1" parent="myXn_InN5kpEXAYK22Rd-2">
          <mxGeometry y="70" width="420" height="60" as="geometry" />
        </mxCell>
        <mxCell id="myXn_InN5kpEXAYK22Rd-5" value="&lt;ol&gt;&lt;li&gt;shape &amp;gt; style &amp;gt; copy shape size.&lt;/li&gt;&lt;li&gt;shape &amp;gt; style &amp;gt; paste shape size.&amp;nbsp;&lt;/li&gt;&lt;/ol&gt;" style="text;html=1;align=left;verticalAlign=middle;resizable=0;points=[];autosize=1;strokeColor=none;fillColor=none;rounded=0;" vertex="1" parent="myXn_InN5kpEXAYK22Rd-2">
          <mxGeometry y="110" width="240" height="60" as="geometry" />
        </mxCell>
        <mxCell id="myXn_InN5kpEXAYK22Rd-6" value="&lt;ul&gt;&lt;li&gt;start always green&lt;/li&gt;&lt;li&gt;terminator always red&lt;/li&gt;&lt;li&gt;activity always blue&lt;/li&gt;&lt;li&gt;decision always orange&lt;/li&gt;&lt;/ul&gt;" style="text;html=1;align=left;verticalAlign=middle;resizable=0;points=[];autosize=1;strokeColor=none;fillColor=none;rounded=0;" vertex="1" parent="myXn_InN5kpEXAYK22Rd-2">
          <mxGeometry x="270" y="110" width="180" height="90" as="geometry" />
        </mxCell>
        <mxCell id="myXn_InN5kpEXAYK22Rd-7" value="&lt;ul&gt;&lt;li&gt;use scratch pad for default shapes&amp;amp;styling&lt;/li&gt;&lt;li&gt;create custom libraries for reusable shape collections&lt;/li&gt;&lt;/ul&gt;" style="text;html=1;align=left;verticalAlign=middle;resizable=0;points=[];autosize=1;strokeColor=none;fillColor=none;rounded=0;" vertex="1" parent="myXn_InN5kpEXAYK22Rd-2">
          <mxGeometry y="170" width="340" height="60" as="geometry" />
        </mxCell>
        <mxCell id="myXn_InN5kpEXAYK22Rd-8" value="&lt;ul&gt;&lt;li&gt;Edit &amp;gt; select edges &amp;gt; selects all connectors for bulk editing&lt;/li&gt;&lt;li&gt;Edit &amp;gt; select verticies &amp;gt; selects all shapes for bulk editing&lt;/li&gt;&lt;/ul&gt;" style="text;html=1;align=left;verticalAlign=middle;resizable=0;points=[];autosize=1;strokeColor=none;fillColor=none;rounded=0;" vertex="1" parent="myXn_InN5kpEXAYK22Rd-2">
          <mxGeometry y="220" width="370" height="60" as="geometry" />
        </mxCell>
        <mxCell id="myXn_InN5kpEXAYK22Rd-9" value="&lt;ul&gt;&lt;li&gt;create cross functional flow chart with ctrl+clickwhen selecting table cells&lt;/li&gt;&lt;/ul&gt;" style="text;html=1;align=left;verticalAlign=middle;resizable=0;points=[];autosize=1;strokeColor=none;fillColor=none;rounded=0;" vertex="1" parent="myXn_InN5kpEXAYK22Rd-2">
          <mxGeometry y="280" width="440" height="40" as="geometry" />
        </mxCell>
        <mxCell id="myXn_InN5kpEXAYK22Rd-10" value="" style="shape=table;childLayout=tableLayout;startSize=0;fillColor=none;collapsible=0;recursiveResize=0;expand=0;pointerEvents=0;rounded=0;" vertex="1" parent="1">
          <mxGeometry x="440" y="380" width="2470" height="1220" as="geometry" />
        </mxCell>
        <mxCell id="myXn_InN5kpEXAYK22Rd-61" value="" style="edgeStyle=orthogonalEdgeStyle;curved=0;rounded=1;sketch=0;orthogonalLoop=1;jettySize=auto;html=1;" edge="1" parent="myXn_InN5kpEXAYK22Rd-10" source="myXn_InN5kpEXAYK22Rd-58" target="myXn_InN5kpEXAYK22Rd-60">
          <mxGeometry relative="1" as="geometry" />
        </mxCell>
        <mxCell id="myXn_InN5kpEXAYK22Rd-199" style="edgeStyle=orthogonalEdgeStyle;curved=0;rounded=1;sketch=0;orthogonalLoop=1;jettySize=auto;html=1;exitX=0.5;exitY=1;exitDx=0;exitDy=0;exitPerimeter=0;entryX=0.5;entryY=0;entryDx=0;entryDy=0;entryPerimeter=0;endArrow=classic;endFill=1;" edge="1" parent="myXn_InN5kpEXAYK22Rd-10" source="myXn_InN5kpEXAYK22Rd-198" target="myXn_InN5kpEXAYK22Rd-187">
          <mxGeometry relative="1" as="geometry">
            <Array as="points">
              <mxPoint x="520" y="900" />
            </Array>
          </mxGeometry>
        </mxCell>
        <mxCell id="myXn_InN5kpEXAYK22Rd-35" value="" style="edgeStyle=orthogonalEdgeStyle;curved=0;rounded=1;sketch=0;orthogonalLoop=1;jettySize=auto;html=1;startArrow=none;" edge="1" parent="myXn_InN5kpEXAYK22Rd-10" source="myXn_InN5kpEXAYK22Rd-48" target="myXn_InN5kpEXAYK22Rd-34">
          <mxGeometry relative="1" as="geometry" />
        </mxCell>
        <mxCell id="myXn_InN5kpEXAYK22Rd-72" value="Yes" style="edgeStyle=orthogonalEdgeStyle;curved=0;rounded=1;sketch=0;orthogonalLoop=1;jettySize=auto;html=1;exitX=0.5;exitY=1;exitDx=0;exitDy=0;exitPerimeter=0;entryX=0.5;entryY=0;entryDx=0;entryDy=0;" edge="1" parent="myXn_InN5kpEXAYK22Rd-10" source="myXn_InN5kpEXAYK22Rd-188" target="myXn_InN5kpEXAYK22Rd-42">
          <mxGeometry relative="1" as="geometry" />
        </mxCell>
        <mxCell id="myXn_InN5kpEXAYK22Rd-115" value="No" style="edgeStyle=orthogonalEdgeStyle;curved=0;rounded=1;sketch=0;orthogonalLoop=1;jettySize=auto;html=1;exitX=0;exitY=0.5;exitDx=0;exitDy=0;exitPerimeter=0;entryX=0;entryY=0.5;entryDx=0;entryDy=0;entryPerimeter=0;" edge="1" parent="myXn_InN5kpEXAYK22Rd-10" source="myXn_InN5kpEXAYK22Rd-113" target="myXn_InN5kpEXAYK22Rd-50">
          <mxGeometry x="-0.6589" relative="1" as="geometry">
            <Array as="points">
              <mxPoint x="640" y="474" />
              <mxPoint x="640" y="100" />
            </Array>
            <mxPoint y="1" as="offset" />
          </mxGeometry>
        </mxCell>
        <mxCell id="myXn_InN5kpEXAYK22Rd-114" value="" style="edgeStyle=orthogonalEdgeStyle;curved=0;rounded=1;sketch=0;orthogonalLoop=1;jettySize=auto;html=1;endArrow=classic;endFill=1;" edge="1" parent="myXn_InN5kpEXAYK22Rd-10" source="myXn_InN5kpEXAYK22Rd-50" target="myXn_InN5kpEXAYK22Rd-113">
          <mxGeometry relative="1" as="geometry">
            <mxPoint x="1145" y="1000" as="sourcePoint" />
            <mxPoint x="1145" y="1500" as="targetPoint" />
          </mxGeometry>
        </mxCell>
        <mxCell id="myXn_InN5kpEXAYK22Rd-125" value="" style="edgeStyle=orthogonalEdgeStyle;curved=0;rounded=1;sketch=0;orthogonalLoop=1;jettySize=auto;html=1;endArrow=classic;endFill=1;entryX=0.5;entryY=0;entryDx=0;entryDy=0;entryPerimeter=0;" edge="1" parent="myXn_InN5kpEXAYK22Rd-10" source="myXn_InN5kpEXAYK22Rd-118" target="myXn_InN5kpEXAYK22Rd-128">
          <mxGeometry relative="1" as="geometry">
            <mxPoint x="735" y="830" as="targetPoint" />
          </mxGeometry>
        </mxCell>
        <mxCell id="myXn_InN5kpEXAYK22Rd-11" value="" style="swimlane;horizontal=0;fontStyle=0;points=[[0,0.5],[1,0.5]];fillColor=none;strokeColor=none;portConstraint=eastwest;startSize=0;collapsible=0;recursiveResize=0;expand=0;pointerEvents=0;rounded=0;" vertex="1" parent="myXn_InN5kpEXAYK22Rd-10">
          <mxGeometry width="2470" height="400" as="geometry" />
        </mxCell>
        <mxCell id="myXn_InN5kpEXAYK22Rd-12" value="UI" style="swimlane;fontStyle=0;connectable=0;fillColor=none;startSize=0;collapsible=0;recursiveResize=0;expand=0;pointerEvents=0;horizontal=0;labelBackgroundColor=none;labelBorderColor=none;verticalAlign=top;rounded=0;" vertex="1" parent="myXn_InN5kpEXAYK22Rd-11">
          <mxGeometry width="55" height="400" as="geometry">
            <mxRectangle width="55" height="400" as="alternateBounds" />
          </mxGeometry>
        </mxCell>
        <mxCell id="myXn_InN5kpEXAYK22Rd-13" value="Unauthorized" style="swimlane;fontStyle=0;connectable=0;fillColor=none;startSize=40;collapsible=0;recursiveResize=0;expand=0;pointerEvents=0;rounded=0;" vertex="1" parent="myXn_InN5kpEXAYK22Rd-11">
          <mxGeometry x="55" width="905" height="400" as="geometry">
            <mxRectangle width="905" height="400" as="alternateBounds" />
          </mxGeometry>
        </mxCell>
        <mxCell id="myXn_InN5kpEXAYK22Rd-33" value="Start" style="strokeWidth=2;html=1;shape=mxgraph.flowchart.start_1;whiteSpace=wrap;rounded=0;sketch=0;fillColor=#d5e8d4;strokeColor=#82b366;" vertex="1" parent="myXn_InN5kpEXAYK22Rd-13">
          <mxGeometry x="30" y="70" width="100" height="60" as="geometry" />
        </mxCell>
        <mxCell id="myXn_InN5kpEXAYK22Rd-48" value="Landing Page" style="strokeWidth=2;html=1;shape=mxgraph.flowchart.display;whiteSpace=wrap;rounded=0;sketch=0;" vertex="1" parent="myXn_InN5kpEXAYK22Rd-13">
          <mxGeometry x="174.99999999999997" y="70" width="100" height="60" as="geometry" />
        </mxCell>
        <mxCell id="myXn_InN5kpEXAYK22Rd-49" value="" style="edgeStyle=orthogonalEdgeStyle;curved=0;rounded=1;sketch=0;orthogonalLoop=1;jettySize=auto;html=1;endArrow=none;" edge="1" parent="myXn_InN5kpEXAYK22Rd-13" source="myXn_InN5kpEXAYK22Rd-33" target="myXn_InN5kpEXAYK22Rd-48">
          <mxGeometry relative="1" as="geometry">
            <mxPoint x="360" y="90" as="sourcePoint" />
            <mxPoint x="520" y="355.75" as="targetPoint" />
          </mxGeometry>
        </mxCell>
        <mxCell id="myXn_InN5kpEXAYK22Rd-50" value="Signup Page" style="strokeWidth=2;html=1;shape=mxgraph.flowchart.display;whiteSpace=wrap;rounded=0;sketch=0;" vertex="1" parent="myXn_InN5kpEXAYK22Rd-13">
          <mxGeometry x="615" y="70" width="100" height="60" as="geometry" />
        </mxCell>
        <mxCell id="myXn_InN5kpEXAYK22Rd-51" value="No" style="edgeStyle=orthogonalEdgeStyle;curved=0;rounded=1;sketch=0;orthogonalLoop=1;jettySize=auto;html=1;startArrow=none;" edge="1" parent="myXn_InN5kpEXAYK22Rd-13" source="myXn_InN5kpEXAYK22Rd-56" target="myXn_InN5kpEXAYK22Rd-50">
          <mxGeometry relative="1" as="geometry" />
        </mxCell>
        <mxCell id="myXn_InN5kpEXAYK22Rd-56" value="has login credentials" style="strokeWidth=2;html=1;shape=mxgraph.flowchart.decision;whiteSpace=wrap;rounded=0;sketch=0;fillColor=#ffe6cc;strokeColor=#d79b00;" vertex="1" parent="myXn_InN5kpEXAYK22Rd-13">
          <mxGeometry x="415" y="50" width="100" height="100" as="geometry" />
        </mxCell>
        <mxCell id="myXn_InN5kpEXAYK22Rd-57" value="" style="edgeStyle=orthogonalEdgeStyle;curved=0;rounded=1;sketch=0;orthogonalLoop=1;jettySize=auto;html=1;endArrow=none;" edge="1" parent="myXn_InN5kpEXAYK22Rd-13" source="myXn_InN5kpEXAYK22Rd-48" target="myXn_InN5kpEXAYK22Rd-56">
          <mxGeometry relative="1" as="geometry">
            <mxPoint x="620" y="100" as="sourcePoint" />
            <mxPoint x="890" y="100" as="targetPoint" />
          </mxGeometry>
        </mxCell>
        <mxCell id="myXn_InN5kpEXAYK22Rd-58" value="Login Page" style="strokeWidth=2;html=1;shape=mxgraph.flowchart.display;whiteSpace=wrap;rounded=0;sketch=0;" vertex="1" parent="myXn_InN5kpEXAYK22Rd-13">
          <mxGeometry x="405" y="210" width="120" height="60" as="geometry" />
        </mxCell>
        <mxCell id="myXn_InN5kpEXAYK22Rd-59" value="Yes" style="edgeStyle=orthogonalEdgeStyle;curved=0;rounded=1;sketch=0;orthogonalLoop=1;jettySize=auto;html=1;" edge="1" parent="myXn_InN5kpEXAYK22Rd-13" source="myXn_InN5kpEXAYK22Rd-56" target="myXn_InN5kpEXAYK22Rd-58">
          <mxGeometry relative="1" as="geometry" />
        </mxCell>
        <mxCell id="myXn_InN5kpEXAYK22Rd-26" value="Authorized" style="swimlane;fontStyle=0;connectable=0;fillColor=none;startSize=40;collapsible=0;recursiveResize=0;expand=0;pointerEvents=0;rounded=0;" vertex="1" parent="myXn_InN5kpEXAYK22Rd-11">
          <mxGeometry x="960" width="1510" height="400" as="geometry">
            <mxRectangle width="1510" height="400" as="alternateBounds" />
          </mxGeometry>
        </mxCell>
        <mxCell id="myXn_InN5kpEXAYK22Rd-88" style="edgeStyle=orthogonalEdgeStyle;curved=0;rounded=1;sketch=0;orthogonalLoop=1;jettySize=auto;html=1;entryX=0;entryY=0.5;entryDx=0;entryDy=0;entryPerimeter=0;" edge="1" parent="myXn_InN5kpEXAYK22Rd-26" source="myXn_InN5kpEXAYK22Rd-68" target="myXn_InN5kpEXAYK22Rd-87">
          <mxGeometry relative="1" as="geometry" />
        </mxCell>
        <mxCell id="myXn_InN5kpEXAYK22Rd-89" style="edgeStyle=orthogonalEdgeStyle;curved=0;rounded=1;sketch=0;orthogonalLoop=1;jettySize=auto;html=1;exitX=1;exitY=0.5;exitDx=0;exitDy=0;exitPerimeter=0;entryX=0;entryY=0.5;entryDx=0;entryDy=0;entryPerimeter=0;" edge="1" parent="myXn_InN5kpEXAYK22Rd-26" source="myXn_InN5kpEXAYK22Rd-68" target="myXn_InN5kpEXAYK22Rd-85">
          <mxGeometry relative="1" as="geometry" />
        </mxCell>
        <mxCell id="myXn_InN5kpEXAYK22Rd-90" style="edgeStyle=orthogonalEdgeStyle;curved=0;rounded=1;sketch=0;orthogonalLoop=1;jettySize=auto;html=1;exitX=1;exitY=0.5;exitDx=0;exitDy=0;exitPerimeter=0;entryX=0;entryY=0.5;entryDx=0;entryDy=0;entryPerimeter=0;" edge="1" parent="myXn_InN5kpEXAYK22Rd-26" source="myXn_InN5kpEXAYK22Rd-68" target="myXn_InN5kpEXAYK22Rd-86">
          <mxGeometry relative="1" as="geometry" />
        </mxCell>
        <mxCell id="myXn_InN5kpEXAYK22Rd-68" value="User Home Page" style="strokeWidth=2;html=1;shape=mxgraph.flowchart.display;whiteSpace=wrap;rounded=0;sketch=0;" vertex="1" parent="myXn_InN5kpEXAYK22Rd-26">
          <mxGeometry x="30" y="70" width="130" height="60" as="geometry" />
        </mxCell>
        <mxCell id="myXn_InN5kpEXAYK22Rd-94" value="" style="edgeStyle=orthogonalEdgeStyle;curved=0;rounded=1;sketch=0;orthogonalLoop=1;jettySize=auto;html=1;" edge="1" parent="myXn_InN5kpEXAYK22Rd-26" source="myXn_InN5kpEXAYK22Rd-87" target="myXn_InN5kpEXAYK22Rd-93">
          <mxGeometry relative="1" as="geometry" />
        </mxCell>
        <mxCell id="myXn_InN5kpEXAYK22Rd-87" value="display meetings" style="rounded=1;whiteSpace=wrap;html=1;absoluteArcSize=1;arcSize=14;strokeWidth=2;sketch=0;fillColor=#dae8fc;strokeColor=#6c8ebf;fontFamily=Helvetica;fontSize=12;align=center;" vertex="1" parent="myXn_InN5kpEXAYK22Rd-26">
          <mxGeometry x="240" y="180" width="60" height="60" as="geometry" />
        </mxCell>
        <mxCell id="myXn_InN5kpEXAYK22Rd-92" value="" style="edgeStyle=orthogonalEdgeStyle;curved=0;rounded=1;sketch=0;orthogonalLoop=1;jettySize=auto;html=1;" edge="1" parent="myXn_InN5kpEXAYK22Rd-26" source="myXn_InN5kpEXAYK22Rd-86" target="myXn_InN5kpEXAYK22Rd-91">
          <mxGeometry relative="1" as="geometry" />
        </mxCell>
        <mxCell id="myXn_InN5kpEXAYK22Rd-86" value="display students" style="rounded=1;whiteSpace=wrap;html=1;absoluteArcSize=1;arcSize=14;strokeWidth=2;sketch=0;fillColor=#dae8fc;strokeColor=#6c8ebf;fontFamily=Helvetica;fontSize=12;align=center;" vertex="1" parent="myXn_InN5kpEXAYK22Rd-26">
          <mxGeometry x="240" y="300" width="60" height="60" as="geometry" />
        </mxCell>
        <mxCell id="myXn_InN5kpEXAYK22Rd-85" value="Display tasks" style="rounded=1;whiteSpace=wrap;html=1;absoluteArcSize=1;arcSize=14;strokeWidth=2;sketch=0;fillColor=#dae8fc;strokeColor=#6c8ebf;fontFamily=Helvetica;fontSize=12;align=center;" vertex="1" parent="myXn_InN5kpEXAYK22Rd-26">
          <mxGeometry x="240" y="70" width="60" height="60" as="geometry" />
        </mxCell>
        <mxCell id="myXn_InN5kpEXAYK22Rd-91" value="add student" style="rounded=1;whiteSpace=wrap;html=1;absoluteArcSize=1;arcSize=14;strokeWidth=2;sketch=0;fillColor=#dae8fc;strokeColor=#6c8ebf;fontFamily=Helvetica;fontSize=12;align=center;" vertex="1" parent="myXn_InN5kpEXAYK22Rd-26">
          <mxGeometry x="410" y="300" width="60" height="60" as="geometry" />
        </mxCell>
        <mxCell id="myXn_InN5kpEXAYK22Rd-93" value="add meeting" style="rounded=1;whiteSpace=wrap;html=1;absoluteArcSize=1;arcSize=14;strokeWidth=2;sketch=0;fillColor=#dae8fc;strokeColor=#6c8ebf;fontFamily=Helvetica;fontSize=12;align=center;" vertex="1" parent="myXn_InN5kpEXAYK22Rd-26">
          <mxGeometry x="570" y="180" width="60" height="60" as="geometry" />
        </mxCell>
        <mxCell id="myXn_InN5kpEXAYK22Rd-193" value="" style="edgeStyle=orthogonalEdgeStyle;curved=0;rounded=1;sketch=0;orthogonalLoop=1;jettySize=auto;html=1;exitX=0.5;exitY=0;exitDx=0;exitDy=0;entryX=0.5;entryY=1;entryDx=0;entryDy=0;endArrow=none;endFill=1;startArrow=none;" edge="1" parent="myXn_InN5kpEXAYK22Rd-10" source="myXn_InN5kpEXAYK22Rd-185" target="myXn_InN5kpEXAYK22Rd-192">
          <mxGeometry relative="1" as="geometry">
            <mxPoint x="1415" y="1580" as="sourcePoint" />
            <mxPoint x="1802" y="990" as="targetPoint" />
          </mxGeometry>
        </mxCell>
        <mxCell id="myXn_InN5kpEXAYK22Rd-140" value="" style="edgeStyle=orthogonalEdgeStyle;curved=0;rounded=1;sketch=0;orthogonalLoop=1;jettySize=auto;html=1;entryX=0.5;entryY=0;entryDx=0;entryDy=0;entryPerimeter=0;startArrow=none;" edge="1" source="myXn_InN5kpEXAYK22Rd-136" target="myXn_InN5kpEXAYK22Rd-162" parent="myXn_InN5kpEXAYK22Rd-10">
          <mxGeometry relative="1" as="geometry">
            <mxPoint x="1920" y="720" as="targetPoint" />
          </mxGeometry>
        </mxCell>
        <mxCell id="myXn_InN5kpEXAYK22Rd-141" value="Yes" style="edgeStyle=orthogonalEdgeStyle;curved=0;rounded=1;sketch=0;orthogonalLoop=1;jettySize=auto;html=1;exitX=0.5;exitY=1;exitDx=0;exitDy=0;exitPerimeter=0;entryX=0.5;entryY=0;entryDx=0;entryDy=0;entryPerimeter=0;" edge="1" source="myXn_InN5kpEXAYK22Rd-162" target="myXn_InN5kpEXAYK22Rd-139" parent="myXn_InN5kpEXAYK22Rd-10">
          <mxGeometry relative="1" as="geometry">
            <mxPoint x="1920" y="810" as="sourcePoint" />
            <mxPoint x="1706" y="800" as="targetPoint" />
          </mxGeometry>
        </mxCell>
        <mxCell id="myXn_InN5kpEXAYK22Rd-14" value="" style="swimlane;horizontal=0;fontStyle=0;points=[[0,0.5],[1,0.5]];fillColor=none;strokeColor=none;portConstraint=eastwest;startSize=0;collapsible=0;recursiveResize=0;expand=0;pointerEvents=0;rounded=0;" vertex="1" parent="myXn_InN5kpEXAYK22Rd-10">
          <mxGeometry y="400" width="2470" height="260" as="geometry" />
        </mxCell>
        <mxCell id="myXn_InN5kpEXAYK22Rd-15" value="Client" style="swimlane;fontStyle=0;connectable=0;fillColor=none;startSize=0;collapsible=0;recursiveResize=0;expand=0;pointerEvents=0;horizontal=0;verticalAlign=top;rounded=0;" vertex="1" parent="myXn_InN5kpEXAYK22Rd-14">
          <mxGeometry width="55" height="260" as="geometry">
            <mxRectangle width="55" height="260" as="alternateBounds" />
          </mxGeometry>
        </mxCell>
        <mxCell id="myXn_InN5kpEXAYK22Rd-16" value="" style="swimlane;fontStyle=0;connectable=0;fillColor=none;startSize=0;collapsible=0;recursiveResize=0;expand=0;pointerEvents=0;rounded=0;" vertex="1" parent="myXn_InN5kpEXAYK22Rd-14">
          <mxGeometry x="55" width="905" height="260" as="geometry">
            <mxRectangle width="905" height="260" as="alternateBounds" />
          </mxGeometry>
        </mxCell>
        <mxCell id="myXn_InN5kpEXAYK22Rd-34" value="check&lt;br&gt;for auth token" style="rounded=1;whiteSpace=wrap;html=1;absoluteArcSize=1;arcSize=14;strokeWidth=2;fontFamily=Helvetica;fontSize=12;align=center;strokeColor=#6c8ebf;fillColor=#dae8fc;sketch=0;" vertex="1" parent="myXn_InN5kpEXAYK22Rd-16">
          <mxGeometry x="194.99" y="43" width="60" height="60" as="geometry" />
        </mxCell>
        <mxCell id="myXn_InN5kpEXAYK22Rd-113" value="All &lt;br&gt;required data provided?" style="strokeWidth=2;html=1;shape=mxgraph.flowchart.decision;whiteSpace=wrap;rounded=0;sketch=0;fillColor=#ffe6cc;strokeColor=#d79b00;" vertex="1" parent="myXn_InN5kpEXAYK22Rd-16">
          <mxGeometry x="615" y="23" width="100" height="100" as="geometry" />
        </mxCell>
        <mxCell id="myXn_InN5kpEXAYK22Rd-118" value="submit request to server" style="rounded=1;whiteSpace=wrap;html=1;absoluteArcSize=1;arcSize=14;strokeWidth=2;sketch=0;fillColor=#dae8fc;strokeColor=#6c8ebf;" vertex="1" parent="myXn_InN5kpEXAYK22Rd-16">
          <mxGeometry x="635" y="180" width="60" height="60" as="geometry" />
        </mxCell>
        <mxCell id="myXn_InN5kpEXAYK22Rd-119" value="Yes" style="edgeStyle=orthogonalEdgeStyle;curved=0;rounded=1;sketch=0;orthogonalLoop=1;jettySize=auto;html=1;endArrow=classic;endFill=1;" edge="1" parent="myXn_InN5kpEXAYK22Rd-16" source="myXn_InN5kpEXAYK22Rd-113" target="myXn_InN5kpEXAYK22Rd-118">
          <mxGeometry relative="1" as="geometry" />
        </mxCell>
        <mxCell id="myXn_InN5kpEXAYK22Rd-188" value="auth token present?" style="strokeWidth=2;html=1;shape=mxgraph.flowchart.decision;whiteSpace=wrap;rounded=0;sketch=0;fillColor=#ffe6cc;strokeColor=#d79b00;" vertex="1" parent="myXn_InN5kpEXAYK22Rd-16">
          <mxGeometry x="176" y="132.59" width="97.41" height="97.41" as="geometry" />
        </mxCell>
        <mxCell id="myXn_InN5kpEXAYK22Rd-189" value="" style="edgeStyle=orthogonalEdgeStyle;curved=0;rounded=1;sketch=0;orthogonalLoop=1;jettySize=auto;html=1;endArrow=none;" edge="1" parent="myXn_InN5kpEXAYK22Rd-16" source="myXn_InN5kpEXAYK22Rd-34" target="myXn_InN5kpEXAYK22Rd-188">
          <mxGeometry relative="1" as="geometry">
            <mxPoint x="759.99" y="883" as="sourcePoint" />
            <mxPoint x="759.99" y="1070" as="targetPoint" />
          </mxGeometry>
        </mxCell>
        <mxCell id="myXn_InN5kpEXAYK22Rd-192" value="login user" style="rounded=1;whiteSpace=wrap;html=1;absoluteArcSize=1;arcSize=14;strokeWidth=2;sketch=0;fillColor=#dae8fc;strokeColor=#6c8ebf;" vertex="1" parent="myXn_InN5kpEXAYK22Rd-16">
          <mxGeometry x="795" y="50" width="60" height="60" as="geometry" />
        </mxCell>
        <mxCell id="myXn_InN5kpEXAYK22Rd-27" style="swimlane;fontStyle=0;connectable=0;fillColor=none;startSize=0;collapsible=0;recursiveResize=0;expand=0;pointerEvents=0;rounded=0;" vertex="1" parent="myXn_InN5kpEXAYK22Rd-14">
          <mxGeometry x="960" width="1510" height="260" as="geometry">
            <mxRectangle width="1510" height="260" as="alternateBounds" />
          </mxGeometry>
        </mxCell>
        <mxCell id="myXn_InN5kpEXAYK22Rd-109" value="All &lt;br&gt;required data provided?" style="strokeWidth=2;html=1;shape=mxgraph.flowchart.decision;whiteSpace=wrap;rounded=0;sketch=0;fillColor=#ffe6cc;strokeColor=#d79b00;" vertex="1" parent="myXn_InN5kpEXAYK22Rd-27">
          <mxGeometry x="390" y="23" width="100" height="100" as="geometry" />
        </mxCell>
        <mxCell id="myXn_InN5kpEXAYK22Rd-116" value="submit request to server" style="rounded=1;whiteSpace=wrap;html=1;absoluteArcSize=1;arcSize=14;strokeWidth=2;sketch=0;fillColor=#dae8fc;strokeColor=#6c8ebf;" vertex="1" parent="myXn_InN5kpEXAYK22Rd-27">
          <mxGeometry x="410" y="180" width="60" height="60" as="geometry" />
        </mxCell>
        <mxCell id="myXn_InN5kpEXAYK22Rd-117" value="Yes" style="edgeStyle=orthogonalEdgeStyle;curved=0;rounded=1;sketch=0;orthogonalLoop=1;jettySize=auto;html=1;entryX=0.5;entryY=0;entryDx=0;entryDy=0;entryPerimeter=0;startArrow=none;endArrow=classic;endFill=1;" edge="1" parent="myXn_InN5kpEXAYK22Rd-27" source="myXn_InN5kpEXAYK22Rd-109" target="myXn_InN5kpEXAYK22Rd-116">
          <mxGeometry relative="1" as="geometry">
            <mxPoint x="1746" y="983" as="sourcePoint" />
            <mxPoint x="1746" y="1135" as="targetPoint" />
          </mxGeometry>
        </mxCell>
        <mxCell id="myXn_InN5kpEXAYK22Rd-135" value="All &lt;br&gt;required data provided?" style="strokeWidth=2;html=1;shape=mxgraph.flowchart.decision;whiteSpace=wrap;rounded=0;sketch=0;fillColor=#ffe6cc;strokeColor=#d79b00;" vertex="1" parent="myXn_InN5kpEXAYK22Rd-27">
          <mxGeometry x="750" y="23" width="100" height="100" as="geometry" />
        </mxCell>
        <mxCell id="myXn_InN5kpEXAYK22Rd-136" value="submit request to server" style="rounded=1;whiteSpace=wrap;html=1;absoluteArcSize=1;arcSize=14;strokeWidth=2;sketch=0;fillColor=#dae8fc;strokeColor=#6c8ebf;" vertex="1" parent="myXn_InN5kpEXAYK22Rd-27">
          <mxGeometry x="770" y="180" width="60" height="60" as="geometry" />
        </mxCell>
        <mxCell id="myXn_InN5kpEXAYK22Rd-137" value="Yes" style="edgeStyle=orthogonalEdgeStyle;curved=0;rounded=1;sketch=0;orthogonalLoop=1;jettySize=auto;html=1;entryX=0.5;entryY=0;entryDx=0;entryDy=0;entryPerimeter=0;startArrow=none;endArrow=classic;endFill=1;" edge="1" source="myXn_InN5kpEXAYK22Rd-135" target="myXn_InN5kpEXAYK22Rd-136" parent="myXn_InN5kpEXAYK22Rd-27">
          <mxGeometry relative="1" as="geometry">
            <mxPoint x="2106" y="983" as="sourcePoint" />
            <mxPoint x="2106" y="1135" as="targetPoint" />
          </mxGeometry>
        </mxCell>
        <mxCell id="myXn_InN5kpEXAYK22Rd-147" value="&lt;br&gt;at least one student?" style="strokeWidth=2;html=1;shape=mxgraph.flowchart.decision;whiteSpace=wrap;rounded=0;sketch=0;fillColor=#ffe6cc;strokeColor=#d79b00;" vertex="1" parent="myXn_InN5kpEXAYK22Rd-27">
          <mxGeometry x="550" y="23" width="100" height="100" as="geometry" />
        </mxCell>
        <mxCell id="myXn_InN5kpEXAYK22Rd-142" style="edgeStyle=orthogonalEdgeStyle;curved=0;rounded=1;sketch=0;orthogonalLoop=1;jettySize=auto;html=1;exitX=1;exitY=0.5;exitDx=0;exitDy=0;entryX=0;entryY=0.5;entryDx=0;entryDy=0;entryPerimeter=0;endArrow=classic;endFill=1;startArrow=none;exitPerimeter=0;" edge="1" parent="myXn_InN5kpEXAYK22Rd-27" source="myXn_InN5kpEXAYK22Rd-147" target="myXn_InN5kpEXAYK22Rd-135">
          <mxGeometry relative="1" as="geometry" />
        </mxCell>
        <mxCell id="myXn_InN5kpEXAYK22Rd-151" value="redirect to login" style="rounded=1;whiteSpace=wrap;html=1;absoluteArcSize=1;arcSize=14;strokeWidth=2;sketch=0;fillColor=#dae8fc;strokeColor=#6c8ebf;fontFamily=Helvetica;fontSize=12;align=center;" vertex="1" parent="myXn_InN5kpEXAYK22Rd-27">
          <mxGeometry x="210" y="180" width="60" height="60" as="geometry" />
        </mxCell>
        <mxCell id="myXn_InN5kpEXAYK22Rd-177" value="handle error" style="rounded=1;whiteSpace=wrap;html=1;absoluteArcSize=1;arcSize=14;strokeWidth=2;sketch=0;fillColor=#dae8fc;strokeColor=#6c8ebf;fontFamily=Helvetica;fontSize=12;align=center;" vertex="1" parent="myXn_InN5kpEXAYK22Rd-27">
          <mxGeometry x="50" y="180" width="60" height="60" as="geometry" />
        </mxCell>
        <mxCell id="myXn_InN5kpEXAYK22Rd-181" value="update students state" style="strokeWidth=2;html=1;shape=mxgraph.flowchart.stored_data;whiteSpace=wrap;fontFamily=Helvetica;fontSize=12;fontColor=rgb(0, 0, 0);align=center;strokeColor=#6c8ebf;fillColor=#dae8fc;sketch=0;" vertex="1" parent="myXn_InN5kpEXAYK22Rd-27">
          <mxGeometry x="530" y="180" width="60" height="60" as="geometry" />
        </mxCell>
        <mxCell id="myXn_InN5kpEXAYK22Rd-178" value="" style="edgeStyle=orthogonalEdgeStyle;curved=0;rounded=1;sketch=0;orthogonalLoop=1;jettySize=auto;html=1;endArrow=classic;endFill=1;startArrow=none;" edge="1" source="myXn_InN5kpEXAYK22Rd-179" target="myXn_InN5kpEXAYK22Rd-177" parent="myXn_InN5kpEXAYK22Rd-10">
          <mxGeometry relative="1" as="geometry" />
        </mxCell>
        <mxCell id="myXn_InN5kpEXAYK22Rd-152" value="" style="edgeStyle=orthogonalEdgeStyle;curved=0;rounded=1;sketch=0;orthogonalLoop=1;jettySize=auto;html=1;endArrow=classic;endFill=1;startArrow=none;" edge="1" parent="myXn_InN5kpEXAYK22Rd-10" source="myXn_InN5kpEXAYK22Rd-172" target="myXn_InN5kpEXAYK22Rd-151">
          <mxGeometry relative="1" as="geometry" />
        </mxCell>
        <mxCell id="myXn_InN5kpEXAYK22Rd-17" value="" style="swimlane;horizontal=0;fontStyle=0;points=[[0,0.5],[1,0.5]];fillColor=none;strokeColor=none;portConstraint=eastwest;startSize=0;collapsible=0;recursiveResize=0;expand=0;pointerEvents=0;rounded=0;" vertex="1" parent="myXn_InN5kpEXAYK22Rd-10">
          <mxGeometry y="660" width="2470" height="320" as="geometry" />
        </mxCell>
        <mxCell id="myXn_InN5kpEXAYK22Rd-18" value="Server" style="swimlane;fontStyle=0;connectable=0;fillColor=none;startSize=0;collapsible=0;recursiveResize=0;expand=0;pointerEvents=0;horizontal=0;verticalAlign=top;rounded=0;" vertex="1" parent="myXn_InN5kpEXAYK22Rd-17">
          <mxGeometry width="55" height="320" as="geometry">
            <mxRectangle width="55" height="320" as="alternateBounds" />
          </mxGeometry>
        </mxCell>
        <mxCell id="myXn_InN5kpEXAYK22Rd-19" value="" style="swimlane;fontStyle=0;connectable=0;fillColor=none;startSize=0;collapsible=0;recursiveResize=0;expand=0;pointerEvents=0;rounded=0;" vertex="1" parent="myXn_InN5kpEXAYK22Rd-17">
          <mxGeometry x="55" width="905" height="320" as="geometry">
            <mxRectangle width="905" height="320" as="alternateBounds" />
          </mxGeometry>
        </mxCell>
        <mxCell id="myXn_InN5kpEXAYK22Rd-60" value="Login user with email" style="rounded=1;whiteSpace=wrap;html=1;absoluteArcSize=1;arcSize=14;strokeWidth=2;sketch=0;fillColor=#dae8fc;strokeColor=#6c8ebf;" vertex="1" parent="myXn_InN5kpEXAYK22Rd-19">
          <mxGeometry x="435" y="40" width="60" height="60" as="geometry" />
        </mxCell>
        <mxCell id="myXn_InN5kpEXAYK22Rd-39" value="valid&amp;nbsp;&lt;br&gt;token ?" style="strokeWidth=2;html=1;shape=mxgraph.flowchart.decision;whiteSpace=wrap;fontFamily=Helvetica;fontSize=12;align=center;strokeColor=#d79b00;fillColor=#ffe6cc;sketch=0;" vertex="1" parent="myXn_InN5kpEXAYK22Rd-19">
          <mxGeometry x="176.57000000000002" y="157" width="96.83" height="83" as="geometry" />
        </mxCell>
        <mxCell id="myXn_InN5kpEXAYK22Rd-197" style="edgeStyle=orthogonalEdgeStyle;curved=0;rounded=1;sketch=0;orthogonalLoop=1;jettySize=auto;html=1;exitX=0.5;exitY=1;exitDx=0;exitDy=0;entryX=0.5;entryY=0;entryDx=0;entryDy=0;entryPerimeter=0;endArrow=classic;endFill=1;" edge="1" parent="myXn_InN5kpEXAYK22Rd-19" source="myXn_InN5kpEXAYK22Rd-42" target="myXn_InN5kpEXAYK22Rd-39">
          <mxGeometry relative="1" as="geometry" />
        </mxCell>
        <mxCell id="myXn_InN5kpEXAYK22Rd-42" value="login user with token" style="rounded=1;whiteSpace=wrap;html=1;absoluteArcSize=1;arcSize=14;strokeWidth=2;fontFamily=Helvetica;fontSize=12;align=center;strokeColor=#6c8ebf;fillColor=#dae8fc;sketch=0;" vertex="1" parent="myXn_InN5kpEXAYK22Rd-19">
          <mxGeometry x="189.99" y="40" width="70" height="60" as="geometry" />
        </mxCell>
        <mxCell id="myXn_InN5kpEXAYK22Rd-185" value="set local state" style="strokeWidth=2;html=1;shape=mxgraph.flowchart.stored_data;whiteSpace=wrap;fontFamily=Helvetica;fontSize=12;fontColor=rgb(0, 0, 0);align=center;strokeColor=#6c8ebf;fillColor=#dae8fc;sketch=0;" vertex="1" parent="myXn_InN5kpEXAYK22Rd-19">
          <mxGeometry x="775" y="140" width="100" height="100" as="geometry" />
        </mxCell>
        <mxCell id="myXn_InN5kpEXAYK22Rd-198" value="valid&amp;nbsp;&lt;br&gt;email ?" style="strokeWidth=2;html=1;shape=mxgraph.flowchart.decision;whiteSpace=wrap;fontFamily=Helvetica;fontSize=12;align=center;strokeColor=#d79b00;fillColor=#ffe6cc;sketch=0;" vertex="1" parent="myXn_InN5kpEXAYK22Rd-19">
          <mxGeometry x="416.58000000000004" y="157" width="96.83" height="83" as="geometry" />
        </mxCell>
        <mxCell id="myXn_InN5kpEXAYK22Rd-194" style="edgeStyle=orthogonalEdgeStyle;curved=0;rounded=1;sketch=0;orthogonalLoop=1;jettySize=auto;html=1;exitX=0.5;exitY=1;exitDx=0;exitDy=0;endArrow=classic;endFill=1;" edge="1" parent="myXn_InN5kpEXAYK22Rd-19" source="myXn_InN5kpEXAYK22Rd-60" target="myXn_InN5kpEXAYK22Rd-198">
          <mxGeometry relative="1" as="geometry">
            <mxPoint x="465" y="370" as="targetPoint" />
            <Array as="points" />
          </mxGeometry>
        </mxCell>
        <mxCell id="myXn_InN5kpEXAYK22Rd-28" style="swimlane;fontStyle=0;connectable=0;fillColor=none;startSize=0;collapsible=0;recursiveResize=0;expand=0;pointerEvents=0;rounded=0;" vertex="1" parent="myXn_InN5kpEXAYK22Rd-17">
          <mxGeometry x="960" width="1510" height="320" as="geometry">
            <mxRectangle width="1510" height="320" as="alternateBounds" />
          </mxGeometry>
        </mxCell>
        <mxCell id="myXn_InN5kpEXAYK22Rd-97" value="Authorized?" style="strokeWidth=2;html=1;shape=mxgraph.flowchart.decision;whiteSpace=wrap;rounded=0;sketch=0;fillColor=#ffe6cc;strokeColor=#d79b00;" vertex="1" parent="myXn_InN5kpEXAYK22Rd-28">
          <mxGeometry x="395" y="20" width="90" height="90" as="geometry" />
        </mxCell>
        <mxCell id="myXn_InN5kpEXAYK22Rd-174" value="No" style="edgeStyle=orthogonalEdgeStyle;curved=0;rounded=1;sketch=0;orthogonalLoop=1;jettySize=auto;html=1;exitX=0;exitY=0.5;exitDx=0;exitDy=0;exitPerimeter=0;endArrow=classic;endFill=1;entryX=0.5;entryY=1;entryDx=0;entryDy=0;" edge="1" parent="myXn_InN5kpEXAYK22Rd-28" source="myXn_InN5kpEXAYK22Rd-162" target="myXn_InN5kpEXAYK22Rd-172">
          <mxGeometry relative="1" as="geometry">
            <mxPoint x="260" y="80" as="targetPoint" />
            <Array as="points">
              <mxPoint x="720" y="65" />
              <mxPoint x="720" y="120" />
              <mxPoint x="240" y="120" />
            </Array>
          </mxGeometry>
        </mxCell>
        <mxCell id="myXn_InN5kpEXAYK22Rd-162" value="Authorized?" style="strokeWidth=2;html=1;shape=mxgraph.flowchart.decision;whiteSpace=wrap;rounded=0;sketch=0;fillColor=#ffe6cc;strokeColor=#d79b00;" vertex="1" parent="myXn_InN5kpEXAYK22Rd-28">
          <mxGeometry x="755" y="20" width="90" height="90" as="geometry" />
        </mxCell>
        <mxCell id="myXn_InN5kpEXAYK22Rd-172" value="respond with 401 unauthorized" style="rounded=1;whiteSpace=wrap;html=1;absoluteArcSize=1;arcSize=14;strokeWidth=2;sketch=0;fillColor=#dae8fc;strokeColor=#6c8ebf;" vertex="1" parent="myXn_InN5kpEXAYK22Rd-28">
          <mxGeometry x="180" y="20" width="120" height="60" as="geometry" />
        </mxCell>
        <mxCell id="myXn_InN5kpEXAYK22Rd-173" value="No" style="edgeStyle=orthogonalEdgeStyle;curved=0;rounded=1;sketch=0;orthogonalLoop=1;jettySize=auto;html=1;endArrow=none;endFill=1;exitX=0;exitY=0.5;exitDx=0;exitDy=0;exitPerimeter=0;entryX=0.5;entryY=1;entryDx=0;entryDy=0;" edge="1" parent="myXn_InN5kpEXAYK22Rd-28" source="myXn_InN5kpEXAYK22Rd-97" target="myXn_InN5kpEXAYK22Rd-172">
          <mxGeometry relative="1" as="geometry">
            <mxPoint x="1965" y="1185" as="sourcePoint" />
            <mxPoint x="1670" y="1060" as="targetPoint" />
            <Array as="points">
              <mxPoint x="360" y="65" />
              <mxPoint x="360" y="120" />
              <mxPoint x="240" y="120" />
            </Array>
          </mxGeometry>
        </mxCell>
        <mxCell id="myXn_InN5kpEXAYK22Rd-180" value="No" style="edgeStyle=orthogonalEdgeStyle;curved=0;rounded=1;sketch=0;orthogonalLoop=1;jettySize=auto;html=1;exitX=0;exitY=0.5;exitDx=0;exitDy=0;exitPerimeter=0;entryX=0.5;entryY=1;entryDx=0;entryDy=0;endArrow=classic;endFill=1;" edge="1" parent="myXn_InN5kpEXAYK22Rd-28" source="myXn_InN5kpEXAYK22Rd-175" target="myXn_InN5kpEXAYK22Rd-179">
          <mxGeometry relative="1" as="geometry" />
        </mxCell>
        <mxCell id="myXn_InN5kpEXAYK22Rd-175" value="successful&lt;br&gt;tx ?" style="strokeWidth=2;html=1;shape=mxgraph.flowchart.decision;whiteSpace=wrap;rounded=0;sketch=0;fillColor=#ffe6cc;strokeColor=#d79b00;" vertex="1" parent="myXn_InN5kpEXAYK22Rd-28">
          <mxGeometry x="510" y="170" width="100" height="100" as="geometry" />
        </mxCell>
        <mxCell id="myXn_InN5kpEXAYK22Rd-179" value="respond with 500 internal error" style="rounded=1;whiteSpace=wrap;html=1;absoluteArcSize=1;arcSize=14;strokeWidth=2;sketch=0;fillColor=#dae8fc;strokeColor=#6c8ebf;" vertex="1" parent="myXn_InN5kpEXAYK22Rd-28">
          <mxGeometry x="20" y="20" width="120" height="60" as="geometry" />
        </mxCell>
        <mxCell id="myXn_InN5kpEXAYK22Rd-105" style="swimlane;horizontal=0;fontStyle=0;points=[[0,0.5],[1,0.5]];fillColor=none;strokeColor=none;portConstraint=eastwest;startSize=0;collapsible=0;recursiveResize=0;expand=0;pointerEvents=0;rounded=0;" vertex="1" parent="myXn_InN5kpEXAYK22Rd-10">
          <mxGeometry y="980" width="2470" height="240" as="geometry" />
        </mxCell>
        <mxCell id="myXn_InN5kpEXAYK22Rd-106" value="Database" style="swimlane;fontStyle=0;connectable=0;fillColor=none;startSize=0;collapsible=0;recursiveResize=0;expand=0;pointerEvents=0;horizontal=0;verticalAlign=top;rounded=0;" vertex="1" parent="myXn_InN5kpEXAYK22Rd-105">
          <mxGeometry width="55" height="240" as="geometry">
            <mxRectangle width="55" height="240" as="alternateBounds" />
          </mxGeometry>
        </mxCell>
        <mxCell id="myXn_InN5kpEXAYK22Rd-107" style="swimlane;fontStyle=0;connectable=0;fillColor=none;startSize=0;collapsible=0;recursiveResize=0;expand=0;pointerEvents=0;rounded=0;" vertex="1" parent="myXn_InN5kpEXAYK22Rd-105">
          <mxGeometry x="55" width="905" height="240" as="geometry">
            <mxRectangle width="905" height="240" as="alternateBounds" />
          </mxGeometry>
        </mxCell>
        <mxCell id="myXn_InN5kpEXAYK22Rd-128" value="Create user" style="strokeWidth=2;html=1;shape=mxgraph.flowchart.database;whiteSpace=wrap;rounded=0;sketch=0;fillColor=#e1d5e7;strokeColor=#9673a6;fontFamily=Helvetica;fontSize=12;align=center;" vertex="1" parent="myXn_InN5kpEXAYK22Rd-107">
          <mxGeometry x="615" y="30" width="100" height="100" as="geometry" />
        </mxCell>
        <mxCell id="myXn_InN5kpEXAYK22Rd-187" value="Get user data" style="strokeWidth=2;html=1;shape=mxgraph.flowchart.database;whiteSpace=wrap;rounded=0;sketch=0;fillColor=#e1d5e7;strokeColor=#9673a6;" vertex="1" parent="myXn_InN5kpEXAYK22Rd-107">
          <mxGeometry x="415" y="30" width="100" height="100" as="geometry" />
        </mxCell>
        <mxCell id="myXn_InN5kpEXAYK22Rd-108" style="swimlane;fontStyle=0;connectable=0;fillColor=none;startSize=0;collapsible=0;recursiveResize=0;expand=0;pointerEvents=0;rounded=0;" vertex="1" parent="myXn_InN5kpEXAYK22Rd-105">
          <mxGeometry x="960" width="1510" height="240" as="geometry">
            <mxRectangle width="1510" height="240" as="alternateBounds" />
          </mxGeometry>
        </mxCell>
        <mxCell id="myXn_InN5kpEXAYK22Rd-103" value="Create&amp;nbsp;&lt;br&gt;Student" style="strokeWidth=2;html=1;shape=mxgraph.flowchart.database;whiteSpace=wrap;rounded=0;sketch=0;fillColor=#e1d5e7;strokeColor=#9673a6;" vertex="1" parent="myXn_InN5kpEXAYK22Rd-108">
          <mxGeometry x="389" y="40" width="100" height="100" as="geometry" />
        </mxCell>
        <mxCell id="myXn_InN5kpEXAYK22Rd-139" value="Create&amp;nbsp;&lt;br&gt;Meeting" style="strokeWidth=2;html=1;shape=mxgraph.flowchart.database;whiteSpace=wrap;rounded=0;sketch=0;fillColor=#e1d5e7;strokeColor=#9673a6;" vertex="1" parent="myXn_InN5kpEXAYK22Rd-108">
          <mxGeometry x="750" y="40" width="100" height="100" as="geometry" />
        </mxCell>
        <mxCell id="myXn_InN5kpEXAYK22Rd-66" value="No" style="edgeStyle=orthogonalEdgeStyle;curved=0;rounded=1;sketch=0;orthogonalLoop=1;jettySize=auto;html=1;exitX=0;exitY=0.5;exitDx=0;exitDy=0;exitPerimeter=0;entryX=0;entryY=0.5;entryDx=0;entryDy=0;entryPerimeter=0;" edge="1" parent="myXn_InN5kpEXAYK22Rd-10" source="myXn_InN5kpEXAYK22Rd-39" target="myXn_InN5kpEXAYK22Rd-58">
          <mxGeometry x="-0.824" relative="1" as="geometry">
            <Array as="points">
              <mxPoint x="200" y="859" />
              <mxPoint x="200" y="240" />
            </Array>
            <mxPoint as="offset" />
          </mxGeometry>
        </mxCell>
        <mxCell id="myXn_InN5kpEXAYK22Rd-98" value="" style="edgeStyle=orthogonalEdgeStyle;curved=0;rounded=1;sketch=0;orthogonalLoop=1;jettySize=auto;html=1;entryX=0.5;entryY=0;entryDx=0;entryDy=0;entryPerimeter=0;startArrow=none;" edge="1" parent="myXn_InN5kpEXAYK22Rd-10" source="myXn_InN5kpEXAYK22Rd-116" target="myXn_InN5kpEXAYK22Rd-97">
          <mxGeometry relative="1" as="geometry" />
        </mxCell>
        <mxCell id="myXn_InN5kpEXAYK22Rd-110" value="" style="edgeStyle=orthogonalEdgeStyle;curved=0;rounded=1;sketch=0;orthogonalLoop=1;jettySize=auto;html=1;entryX=0.5;entryY=0;entryDx=0;entryDy=0;entryPerimeter=0;endArrow=classic;endFill=1;" edge="1" parent="myXn_InN5kpEXAYK22Rd-10" source="myXn_InN5kpEXAYK22Rd-91" target="myXn_InN5kpEXAYK22Rd-109">
          <mxGeometry relative="1" as="geometry">
            <mxPoint x="2642.066666666667" y="1170" as="sourcePoint" />
            <mxPoint x="2672" y="1550" as="targetPoint" />
          </mxGeometry>
        </mxCell>
        <mxCell id="myXn_InN5kpEXAYK22Rd-111" value="No" style="edgeStyle=orthogonalEdgeStyle;curved=0;rounded=1;sketch=0;orthogonalLoop=1;jettySize=auto;html=1;exitX=0;exitY=0.5;exitDx=0;exitDy=0;exitPerimeter=0;entryX=0;entryY=0.5;entryDx=0;entryDy=0;" edge="1" parent="myXn_InN5kpEXAYK22Rd-10" source="myXn_InN5kpEXAYK22Rd-109" target="myXn_InN5kpEXAYK22Rd-91">
          <mxGeometry x="-0.3449" relative="1" as="geometry">
            <Array as="points">
              <mxPoint x="1320" y="473" />
              <mxPoint x="1320" y="330" />
            </Array>
            <mxPoint as="offset" />
          </mxGeometry>
        </mxCell>
        <mxCell id="myXn_InN5kpEXAYK22Rd-101" value="Yes" style="edgeStyle=orthogonalEdgeStyle;curved=0;rounded=1;sketch=0;orthogonalLoop=1;jettySize=auto;html=1;exitX=0.5;exitY=1;exitDx=0;exitDy=0;exitPerimeter=0;entryX=0.5;entryY=0;entryDx=0;entryDy=0;entryPerimeter=0;" edge="1" parent="myXn_InN5kpEXAYK22Rd-10" source="myXn_InN5kpEXAYK22Rd-97" target="myXn_InN5kpEXAYK22Rd-103">
          <mxGeometry relative="1" as="geometry">
            <mxPoint x="1316" y="800" as="targetPoint" />
          </mxGeometry>
        </mxCell>
        <mxCell id="myXn_InN5kpEXAYK22Rd-133" value="" style="edgeStyle=orthogonalEdgeStyle;curved=0;rounded=1;sketch=0;orthogonalLoop=1;jettySize=auto;html=1;endArrow=classic;endFill=1;entryX=0.5;entryY=1;entryDx=0;entryDy=0;entryPerimeter=0;" edge="1" parent="myXn_InN5kpEXAYK22Rd-10" source="myXn_InN5kpEXAYK22Rd-128" target="myXn_InN5kpEXAYK22Rd-185">
          <mxGeometry relative="1" as="geometry">
            <mxPoint x="960" y="920" as="targetPoint" />
          </mxGeometry>
        </mxCell>
        <mxCell id="myXn_InN5kpEXAYK22Rd-134" style="edgeStyle=orthogonalEdgeStyle;curved=0;rounded=1;sketch=0;orthogonalLoop=1;jettySize=auto;html=1;exitX=0.5;exitY=0;exitDx=0;exitDy=0;entryX=0;entryY=0.5;entryDx=0;entryDy=0;entryPerimeter=0;endArrow=classic;endFill=1;startArrow=none;" edge="1" parent="myXn_InN5kpEXAYK22Rd-10" source="myXn_InN5kpEXAYK22Rd-192" target="myXn_InN5kpEXAYK22Rd-68">
          <mxGeometry relative="1" as="geometry" />
        </mxCell>
        <mxCell id="myXn_InN5kpEXAYK22Rd-148" value="" style="edgeStyle=orthogonalEdgeStyle;curved=0;rounded=1;sketch=0;orthogonalLoop=1;jettySize=auto;html=1;exitX=0.5;exitY=1;exitDx=0;exitDy=0;entryX=0.5;entryY=0;entryDx=0;entryDy=0;entryPerimeter=0;endArrow=none;endFill=1;" edge="1" parent="myXn_InN5kpEXAYK22Rd-10" source="myXn_InN5kpEXAYK22Rd-93" target="myXn_InN5kpEXAYK22Rd-147">
          <mxGeometry relative="1" as="geometry">
            <mxPoint x="3930" y="930" as="sourcePoint" />
            <mxPoint x="4100" y="1103" as="targetPoint" />
          </mxGeometry>
        </mxCell>
        <mxCell id="myXn_InN5kpEXAYK22Rd-149" value="No" style="edgeStyle=orthogonalEdgeStyle;curved=0;rounded=1;sketch=0;orthogonalLoop=1;jettySize=auto;html=1;exitX=0.5;exitY=0;exitDx=0;exitDy=0;exitPerimeter=0;entryX=1;entryY=0.5;entryDx=0;entryDy=0;endArrow=classic;endFill=1;" edge="1" parent="myXn_InN5kpEXAYK22Rd-10" source="myXn_InN5kpEXAYK22Rd-135" target="myXn_InN5kpEXAYK22Rd-93">
          <mxGeometry relative="1" as="geometry" />
        </mxCell>
        <mxCell id="myXn_InN5kpEXAYK22Rd-176" value="" style="edgeStyle=orthogonalEdgeStyle;curved=0;rounded=1;sketch=0;orthogonalLoop=1;jettySize=auto;html=1;endArrow=classic;endFill=1;" edge="1" parent="myXn_InN5kpEXAYK22Rd-10" source="myXn_InN5kpEXAYK22Rd-103" target="myXn_InN5kpEXAYK22Rd-175">
          <mxGeometry relative="1" as="geometry" />
        </mxCell>
        <mxCell id="myXn_InN5kpEXAYK22Rd-182" value="" style="edgeStyle=orthogonalEdgeStyle;curved=0;rounded=1;sketch=0;orthogonalLoop=1;jettySize=auto;html=1;endArrow=classic;endFill=1;" edge="1" parent="myXn_InN5kpEXAYK22Rd-10" source="myXn_InN5kpEXAYK22Rd-175" target="myXn_InN5kpEXAYK22Rd-181">
          <mxGeometry relative="1" as="geometry" />
        </mxCell>
        <mxCell id="myXn_InN5kpEXAYK22Rd-190" value="No" style="edgeStyle=orthogonalEdgeStyle;curved=0;rounded=1;sketch=0;orthogonalLoop=1;jettySize=auto;html=1;exitX=0;exitY=0.5;exitDx=0;exitDy=0;exitPerimeter=0;entryX=0;entryY=0.5;entryDx=0;entryDy=0;entryPerimeter=0;endArrow=classic;endFill=1;" edge="1" parent="myXn_InN5kpEXAYK22Rd-10" source="myXn_InN5kpEXAYK22Rd-188" target="myXn_InN5kpEXAYK22Rd-58">
          <mxGeometry x="-0.7396" relative="1" as="geometry">
            <Array as="points">
              <mxPoint x="200" y="581" />
              <mxPoint x="200" y="240" />
            </Array>
            <mxPoint as="offset" />
          </mxGeometry>
        </mxCell>
        <mxCell id="myXn_InN5kpEXAYK22Rd-195" style="edgeStyle=orthogonalEdgeStyle;curved=0;rounded=1;sketch=0;orthogonalLoop=1;jettySize=auto;html=1;exitX=0.5;exitY=1;exitDx=0;exitDy=0;endArrow=classic;endFill=1;exitPerimeter=0;" edge="1" parent="myXn_InN5kpEXAYK22Rd-10" source="myXn_InN5kpEXAYK22Rd-39" target="myXn_InN5kpEXAYK22Rd-187">
          <mxGeometry relative="1" as="geometry">
            <Array as="points">
              <mxPoint x="280" y="940" />
              <mxPoint x="520" y="940" />
            </Array>
          </mxGeometry>
        </mxCell>
        <mxCell id="myXn_InN5kpEXAYK22Rd-196" style="edgeStyle=orthogonalEdgeStyle;curved=0;rounded=1;sketch=0;orthogonalLoop=1;jettySize=auto;html=1;exitX=0.5;exitY=1;exitDx=0;exitDy=0;exitPerimeter=0;entryX=0.5;entryY=1;entryDx=0;entryDy=0;entryPerimeter=0;endArrow=classic;endFill=1;" edge="1" parent="myXn_InN5kpEXAYK22Rd-10" source="myXn_InN5kpEXAYK22Rd-187" target="myXn_InN5kpEXAYK22Rd-185">
          <mxGeometry relative="1" as="geometry">
            <Array as="points">
              <mxPoint x="520" y="1140" />
              <mxPoint x="880" y="1140" />
            </Array>
          </mxGeometry>
        </mxCell>
        <mxCell id="myXn_InN5kpEXAYK22Rd-200" value="No" style="edgeStyle=orthogonalEdgeStyle;curved=0;rounded=1;sketch=0;orthogonalLoop=1;jettySize=auto;html=1;exitX=0;exitY=0.5;exitDx=0;exitDy=0;exitPerimeter=0;entryX=0;entryY=0.5;entryDx=0;entryDy=0;entryPerimeter=0;endArrow=classic;endFill=1;" edge="1" parent="myXn_InN5kpEXAYK22Rd-10" source="myXn_InN5kpEXAYK22Rd-198" target="myXn_InN5kpEXAYK22Rd-58">
          <mxGeometry x="-0.795" relative="1" as="geometry">
            <Array as="points">
              <mxPoint x="440" y="859" />
              <mxPoint x="440" y="240" />
            </Array>
            <mxPoint y="-1" as="offset" />
          </mxGeometry>
        </mxCell>
        <mxCell id="myXn_InN5kpEXAYK22Rd-202" value="No" style="edgeStyle=orthogonalEdgeStyle;curved=0;rounded=1;sketch=0;orthogonalLoop=1;jettySize=auto;html=1;exitX=0;exitY=0.5;exitDx=0;exitDy=0;exitPerimeter=0;endArrow=classic;endFill=1;entryX=1;entryY=0.5;entryDx=0;entryDy=0;" edge="1" parent="myXn_InN5kpEXAYK22Rd-10" source="myXn_InN5kpEXAYK22Rd-147" target="myXn_InN5kpEXAYK22Rd-91">
          <mxGeometry x="-0.4345" relative="1" as="geometry">
            <mxPoint x="1400" y="410" as="targetPoint" />
            <Array as="points">
              <mxPoint x="1480" y="473" />
              <mxPoint x="1480" y="330" />
            </Array>
            <mxPoint as="offset" />
          </mxGeometry>
        </mxCell>
      </root>
    </mxGraphModel>
  </diagram>
</mxfile>
